<svg preserveAspectRatio="none" width="100%" height="100%" overflow="visible" style="display: block;" viewBox="0 0 4.58175 8.6955" fill="none" xmlns="http://www.w3.org/2000/svg">
<path id="Vector" d="M0.105375 0.094125C0.035125 0.172375 0 0.258375 0 0.352125C0 0.445875 0.035125 0.527875 0.105375 0.598125L3.76162 4.34812L0.105375 8.09812C0.035125 8.16837 0 8.25037 0 8.34412C0 8.43787 0.035125 8.51987 0.105375 8.59012C0.175625 8.66037 0.257625 8.6955 0.351375 8.6955C0.445125 8.6955 0.527125 8.66425 0.597375 8.60175L4.47637 4.60575C4.54662 4.5355 4.58175 4.4495 4.58175 4.34775C4.58175 4.246 4.54662 4.16 4.47637 4.08975L0.597375 0.09375C0.527125 0.03125 0.445125 0 0.351375 0C0.257625 0 0.175625 0.03125 0.105375 0.09375V0.094125Z" fill="var(--fill-0, #919398)"/>
</svg>
