<svg preserveAspectRatio="none" width="100%" height="100%" overflow="visible" style="display: block;" viewBox="0 0 16 16" fill="none" xmlns="http://www.w3.org/2000/svg">
<g id="Checkbox">
<path id="Rectangle" d="M6 2H10C12.2091 2 14 3.79086 14 6V10C14 12.2091 12.2091 14 10 14H6C3.79086 14 2 12.2091 2 10V6C2 3.79086 3.79086 2 6 2Z" fill="var(--fill-0, #267AF7)" stroke="var(--stroke-0, #267AF7)" stroke-width="4"/>
<path id="Union" d="M10.8057 5.44238C11.1474 5.10067 11.7013 5.10067 12.043 5.44238C12.3846 5.78409 12.3847 6.33799 12.043 6.67969L8.04785 10.6748C7.8515 10.8712 7.69866 11.0235 7.56641 11.1357C7.43295 11.249 7.31189 11.3288 7.17578 11.373C6.94989 11.4464 6.70635 11.4464 6.48047 11.373C6.3445 11.3288 6.22319 11.2489 6.08984 11.1357C5.95761 11.0234 5.80472 10.8711 5.6084 10.6748L4.44238 9.50781C4.10067 9.1661 4.10067 8.61222 4.44238 8.27051C4.7841 7.92895 5.33803 7.92885 5.67969 8.27051L6.82812 9.41895L10.8057 5.44238Z" fill="var(--fill-0, white)" stroke="var(--stroke-0, white)" stroke-width="0.25"/>
</g>
</svg>
