<svg preserveAspectRatio="none" width="100%" height="100%" overflow="visible" style="display: block;" viewBox="0 0 14.0007 13.334" fill="none" xmlns="http://www.w3.org/2000/svg">
<g id="Vector">
<path d="M0 12V1.33398C0 0.597605 0.597605 0 1.33398 0H5.33399L5.40723 0.00488281C5.5774 0.0237815 5.73488 0.107258 5.8457 0.240234L7.3125 2H12.667C13.4034 2 14 2.59759 14 3.33398V12C14 12.7364 13.4034 13.334 12.667 13.334H1.33398C0.597611 13.334 0 12.7364 0 12ZM1.33398 12H12.667V3.33398H7C6.80228 3.33389 6.61487 3.24564 6.48828 3.09375L5.02148 1.33398H1.33398V12Z" fill="var(--fill-0, #212327)"/>
<path d="M13.334 5.33333V6.66732H0.666992V5.33333H13.334Z" fill="var(--fill-0, #212327)"/>
<path d="M0 8.00033V4.00033C0 3.63214 0.298802 3.33333 0.666992 3.33333C1.03518 3.33333 1.33398 3.63214 1.33398 4.00033V8.00033C1.33398 8.36852 1.03518 8.66732 0.666992 8.66732C0.298802 8.66732 0 8.36852 0 8.00033Z" fill="var(--fill-0, #212327)"/>
<path d="M12.6667 8.00033V4.00033C12.6667 3.63214 12.9655 3.33333 13.3337 3.33333C13.7018 3.33333 14.0007 3.63214 14.0007 4.00033V8.00033C14.0007 8.36852 13.7018 8.66732 13.3337 8.66732C12.9655 8.66732 12.6667 8.36852 12.6667 8.00033Z" fill="var(--fill-0, #212327)"/>
</g>
</svg>
