<svg preserveAspectRatio="none" width="100%" height="100%" overflow="visible" style="display: block;" viewBox="0 0 20 20" fill="none" xmlns="http://www.w3.org/2000/svg">
<g id="Frame" clip-path="url(#clip0_0_1873)">
<path id="Vector" d="M10 18.3333C12.3012 18.3333 14.3845 17.4006 15.8925 15.8925C17.4006 14.3845 18.3333 12.3012 18.3333 10C18.3333 7.69883 17.4006 5.6155 15.8925 4.10744C14.3845 2.59941 12.3012 1.66667 10 1.66667C7.69883 1.66667 5.6155 2.59941 4.10744 4.10744C2.59941 5.6155 1.66667 7.69883 1.66667 10C1.66667 12.3012 2.59941 14.3845 4.10744 15.8925C5.6155 17.4006 7.69883 18.3333 10 18.3333Z" stroke="var(--stroke-0, #646A74)" stroke-width="1.66667" stroke-linejoin="round"/>
<path id="Vector_2" d="M10 11.927V10.2603C11.3807 10.2603 12.5 9.14102 12.5 7.76031C12.5 6.37961 11.3807 5.26031 10 5.26031C8.61929 5.26031 7.5 6.37961 7.5 7.76031" stroke="var(--stroke-0, #646A74)" stroke-width="1.66667" stroke-linecap="round" stroke-linejoin="round"/>
<path id="Vector_3" fill-rule="evenodd" clip-rule="evenodd" d="M10 15.677C10.5753 15.677 11.0417 15.2106 11.0417 14.6353C11.0417 14.06 10.5753 13.5936 10 13.5936C9.42471 13.5936 8.95833 14.06 8.95833 14.6353C8.95833 15.2106 9.42471 15.677 10 15.677Z" fill="var(--fill-0, #646A74)"/>
</g>
<defs>
<clipPath id="clip0_0_1873">
<rect width="20" height="20" fill="white"/>
</clipPath>
</defs>
</svg>
