<svg viewBox="0 0 16 13.8521" fill="none" xmlns="http://www.w3.org/2000/svg">
<g id="Vector">
<path d="M8 1.33333C4.31809 1.33333 1.33333 4.31809 1.33333 8C1.33333 9.84112 2.07879 11.5069 3.28596 12.7141C3.54631 12.9744 3.5463 13.3965 3.28595 13.6569C3.0256 13.9172 2.60349 13.9172 2.34314 13.6569C0.89616 12.2099 0 10.2089 0 8C0 3.58171 3.58171 0 8 0C12.4183 0 16 3.58171 16 8C16 10.2089 15.1039 12.2099 13.6569 13.6569C13.3965 13.9172 12.9744 13.9172 12.7141 13.6569C12.4537 13.3965 12.4537 12.9744 12.7141 12.7141C13.9212 11.5069 14.6667 9.84112 14.6667 8C14.6667 4.31809 11.6819 1.33333 8 1.33333Z" fill="var(--fill-0, #7A7E85)"/>
<path d="M8 4C5.79086 4 4 5.79086 4 8C4 9.10476 4.44698 10.1038 5.17157 10.8284C5.43192 11.0888 5.43192 11.5109 5.17157 11.7712C4.91122 12.0316 4.48911 12.0316 4.22876 11.7712C3.26435 10.8068 2.66667 9.47258 2.66667 8C2.66667 5.05448 5.05448 2.66667 8 2.66667C8.36819 2.66667 8.66667 2.96514 8.66667 3.33333C8.66667 3.70152 8.36819 4 8 4Z" fill="var(--fill-0, #7A7E85)"/>
<path d="M8.66667 5.33333C8.66667 4.96514 8.36819 4.66667 8 4.66667C7.63181 4.66667 7.33333 4.96514 7.33333 5.33333V8C7.33333 8.36819 7.63181 8.66667 8 8.66667C8.36819 8.66667 8.66667 8.36819 8.66667 8V5.33333Z" fill="var(--fill-0, #7A7E85)"/>
</g>
</svg>
