<svg viewBox="0 0 14.6667 13.3333" fill="none" xmlns="http://www.w3.org/2000/svg">
<path id="Vector" fill-rule="evenodd" clip-rule="evenodd" d="M6.9169 0.146087C7.16037 -0.0486958 7.50634 -0.0486958 7.74982 0.146087L12.7497 4.14598C12.7497 4.14601 12.7496 4.14594 12.7497 4.14598L14.4165 5.47942C14.704 5.70943 14.7506 6.12895 14.5206 6.41646C14.2906 6.70397 13.8711 6.75059 13.5836 6.52058L13 6.05375V12.6667C13 13.0349 12.7015 13.3333 12.3334 13.3333H2.33336C1.96517 13.3333 1.66669 13.0349 1.66669 12.6667V6.05375L1.08315 6.52058C0.795647 6.75059 0.376118 6.70397 0.146112 6.41646C-0.0838944 6.12895 -0.0372801 5.70943 0.250228 5.47942L1.91689 4.14609C1.91696 4.14603 1.91683 4.14614 1.91689 4.14609L6.9169 0.146087ZM3.00002 4.98708L7.33336 1.52042L11.6667 4.98708V12H9.66669V8.33333C9.66669 7.96514 9.36822 7.66667 9.00003 7.66667H5.66669C5.2985 7.66667 5.00002 7.96514 5.00002 8.33333V12H3.00002V4.98708ZM6.33336 12H8.33336V9H6.33336V12Z" fill="var(--fill-0, #7A7E85)"/>
</svg>
