<svg viewBox="0 0 13.3333 13.3333" fill="none" xmlns="http://www.w3.org/2000/svg">
<path id="Vector" fill-rule="evenodd" clip-rule="evenodd" d="M0.666667 0C1.03486 0 1.33333 0.298477 1.33333 0.666667V12H12.6667C13.0349 12 13.3333 12.2985 13.3333 12.6667C13.3333 13.0349 13.0349 13.3333 12.6667 13.3333H0.666667C0.298477 13.3333 0 13.0349 0 12.6667V0.666667C0 0.298477 0.298477 0 0.666667 0ZM8.66667 0C9.03486 0 9.33333 0.298477 9.33333 0.666667V10C9.33333 10.3682 9.03486 10.6667 8.66667 10.6667C8.29848 10.6667 8 10.3682 8 10V0.666667C8 0.298477 8.29848 0 8.66667 0ZM11.3333 2.66667C11.7015 2.66667 12 2.96514 12 3.33333V10C12 10.3682 11.7015 10.6667 11.3333 10.6667C10.9651 10.6667 10.6667 10.3682 10.6667 10V3.33333C10.6667 2.96514 10.9651 2.66667 11.3333 2.66667ZM6 5.33333C6.36819 5.33333 6.66667 5.63181 6.66667 6V10C6.66667 10.3682 6.36819 10.6667 6 10.6667C5.63181 10.6667 5.33333 10.3682 5.33333 10V6C5.33333 5.63181 5.63181 5.33333 6 5.33333ZM3.33333 8C3.70152 8 4 8.29848 4 8.66667V10C4 10.3682 3.70152 10.6667 3.33333 10.6667C2.96514 10.6667 2.66667 10.3682 2.66667 10V8.66667C2.66667 8.29848 2.96514 8 3.33333 8Z" fill="var(--fill-0, #7A7E85)"/>
</svg>
