<svg viewBox="0 0 14.6667 12.6667" fill="none" xmlns="http://www.w3.org/2000/svg">
<path id="Vector" fill-rule="evenodd" clip-rule="evenodd" d="M3.42545 0.328648C3.54523 0.125025 3.76383 0 4.00007 0H10.6668C10.903 0 11.1216 0.125031 11.2414 0.328661L14.5746 5.99533C14.6973 6.20396 14.6973 6.46271 14.5746 6.67134L11.2414 12.338C11.1216 12.5416 10.903 12.6667 10.6668 12.6667H4.00007C3.76383 12.6667 3.54523 12.5416 3.42545 12.338L0.0920468 6.67135C-0.0306823 6.46272 -0.0306823 6.20395 0.0920468 5.99532L3.42545 0.328648ZM4.38136 1.33333L1.44012 6.33333L4.38136 11.3333H10.2855L13.2266 6.33333L10.2855 1.33333H4.38136ZM5 6.33333C5 5.04468 6.04468 4 7.33333 4C8.62199 4 9.66667 5.04468 9.66667 6.33333C9.66667 7.62199 8.62199 8.66667 7.33333 8.66667C6.04468 8.66667 5 7.62199 5 6.33333ZM7.33333 5.33333C6.78106 5.33333 6.33333 5.78106 6.33333 6.33333C6.33333 6.88561 6.78106 7.33333 7.33333 7.33333C7.88561 7.33333 8.33333 6.88561 8.33333 6.33333C8.33333 5.78106 7.88561 5.33333 7.33333 5.33333Z" fill="var(--fill-0, #7A7E85)"/>
</svg>
