<svg preserveAspectRatio="none" width="100%" height="100%" overflow="visible" style="display: block;" viewBox="0 0 5.34538 10.1447" fill="none" xmlns="http://www.w3.org/2000/svg">
<path id="Vector" d="M0.122938 0.109812C0.0409792 0.201104 0 0.301437 0 0.410812C0 0.520187 0.0409792 0.615854 0.122938 0.697812L4.38856 5.07281L0.122938 9.44781C0.0409792 9.52977 0 9.62544 0 9.73481C0 9.84419 0.0409792 9.93985 0.122938 10.0218C0.204896 10.1038 0.300563 10.1447 0.409938 10.1447C0.519313 10.1447 0.614979 10.1083 0.696938 10.0354L5.22244 5.37337C5.3044 5.29142 5.34538 5.19108 5.34538 5.07237C5.34538 4.95367 5.3044 4.85333 5.22244 4.77138L0.696938 0.109375C0.614979 0.0364583 0.519313 0 0.409938 0C0.300563 0 0.204896 0.0364583 0.122938 0.109375V0.109812Z" fill="var(--fill-0, #646A73)"/>
</svg>
