<svg preserveAspectRatio="none" width="100%" height="100%" overflow="visible" style="display: block;" viewBox="0 0 4.58175 8.69475" fill="none" xmlns="http://www.w3.org/2000/svg">
<path id="Vector" d="M3.98437 0.093375L0.105375 4.08937C0.035125 4.15962 0 4.24362 0 4.34137C0 4.43912 0.035125 4.527 0.105375 4.605L3.98437 8.601C4.05462 8.6635 4.13662 8.69475 4.23037 8.69475C4.32412 8.69475 4.40612 8.65962 4.47637 8.58937C4.54662 8.51912 4.58175 8.43712 4.58175 8.34337C4.58175 8.24962 4.54662 8.16762 4.47637 8.09737L0.820125 4.34737L4.47637 0.597375C4.54662 0.527125 4.58175 0.445125 4.58175 0.351375C4.58175 0.257625 4.54662 0.175625 4.47637 0.105375C4.40612 0.035125 4.32412 0 4.23037 0C4.13662 0 4.05462 0.03125 3.98437 0.09375V0.093375Z" fill="var(--fill-0, #212327)"/>
</svg>
