<svg preserveAspectRatio="none" width="100%" height="100%" overflow="visible" style="display: block;" viewBox="0 0 13.3334 13.6667" fill="none" xmlns="http://www.w3.org/2000/svg">
<path id="Vector" fill-rule="evenodd" clip-rule="evenodd" d="M2.49829 0.227664C2.62488 0.082987 2.80777 0 3.00001 0H10.3333C10.5256 0 10.7085 0.082987 10.8351 0.227664L13.1684 2.89433C13.3119 3.05832 13.3606 3.27278 13.3191 3.47079C13.3285 3.53472 13.3333 3.60012 13.3333 3.66667V12.3333C13.3333 13.0697 12.7364 13.6667 12 13.6667H1.33334C0.596963 13.6667 9.15177e-06 13.0697 9.15177e-06 12.3333V3.66667C9.15177e-06 3.60012 0.00488362 3.53472 0.014295 3.47079C-0.0272691 3.27278 0.0214648 3.05832 0.164958 2.89433L2.49829 0.227664ZM2.42752 2.33333H10.9058L10.0308 1.33333H3.30252L2.42752 2.33333ZM12 3.66667H1.33334V12.3333H12V3.66667ZM3.98328 7.00277C3.98328 6.63458 4.28175 6.3361 4.64994 6.3361H8.64994C9.01813 6.3361 9.31661 6.63458 9.31661 7.00277C9.31661 7.37096 9.01813 7.66943 8.64994 7.66943H4.64994C4.28175 7.66943 3.98328 7.37096 3.98328 7.00277Z" fill="var(--fill-0, black)" fill-opacity="0.85"/>
</svg>
