<svg preserveAspectRatio="none" width="100%" height="100%" overflow="visible" style="display: block;" viewBox="0 0 14 14" fill="none" xmlns="http://www.w3.org/2000/svg">
<path id="Vector" d="M7 0C8.97933 0.052 10.6278 0.736833 11.9455 2.0545C13.2632 3.37217 13.948 5.02067 14 7C13.948 8.97933 13.2632 10.6278 11.9455 11.9455C10.6278 13.2632 8.97933 13.948 7 14C5.02067 13.948 3.37217 13.2632 2.0545 11.9455C0.736833 10.6278 0.052 8.97933 0 7C0.052 5.02067 0.736833 3.37217 2.0545 2.0545C3.37217 0.736833 5.02067 0.052 7 0V0ZM8.047 4.297C8.318 4.297 8.542 4.21633 8.719 4.055C8.896 3.89367 8.9845 3.6775 8.9845 3.4065C8.9845 3.1355 8.896 2.91933 8.719 2.758C8.542 2.59667 8.32067 2.516 8.055 2.516C7.78933 2.516 7.568 2.59667 7.391 2.758C7.214 2.91933 7.1255 3.1355 7.1255 3.4065C7.1255 3.6775 7.214 3.89367 7.391 4.055C7.568 4.21633 7.78683 4.297 8.0475 4.297H8.047ZM8.2345 9.922C8.2345 9.85933 8.23967 9.776 8.25 9.672C8.26033 9.568 8.26033 9.469 8.25 9.375L7.422 10.328C7.33867 10.4217 7.25267 10.4947 7.164 10.547C7.07533 10.5993 6.99983 10.615 6.9375 10.594C6.84383 10.5523 6.80217 10.4793 6.8125 10.375L8.1875 6.047C8.2395 5.75533 8.19267 5.50533 8.047 5.297C7.90133 5.08867 7.667 4.96367 7.344 4.922C6.97933 4.93233 6.58083 5.086 6.1485 5.383C5.71617 5.68 5.3385 6.05767 5.0155 6.516V6.7505C5.00517 6.85483 5.00517 6.95383 5.0155 7.0475L5.8435 6.0945C5.92683 6.00083 6.01283 5.92783 6.1015 5.8755C6.19017 5.82317 6.2605 5.8075 6.3125 5.8285C6.41683 5.8805 6.45333 5.96383 6.422 6.0785L5.0625 10.391C4.9895 10.6513 5.026 10.8832 5.172 11.0865C5.318 11.2898 5.57317 11.4278 5.9375 11.5005C6.4585 11.4902 6.896 11.3392 7.25 11.0475C7.604 10.7558 7.93217 10.3808 8.2345 9.9225V9.922Z" fill="var(--fill-0, #336DF4)"/>
</svg>
