<svg viewBox="0 0 14.6667 14.6667" fill="none" xmlns="http://www.w3.org/2000/svg">
<path id="Vector" fill-rule="evenodd" clip-rule="evenodd" d="M7.33333 0C5.4462 0 3.71197 0.228627 2.42772 0.613902C1.78984 0.805266 1.22507 1.04637 0.804879 1.3444C0.402009 1.63015 0 2.06732 0 2.66667C0 2.73354 0.00500524 2.7984 0.0144584 2.86125C0.00498399 2.90601 -6.1616e-08 2.95242 0 3H0.0431848C-9.31819e-06 3.00002 0 3 0 3L3.51782e-06 5.99781L0 6L3.52399e-06 6.00307L6.83628e-06 8.99695L0 9L6.84404e-06 9.00428L1.00136e-05 12C1.00136e-05 12.5994 0.402018 13.0365 0.804886 13.3223C1.22507 13.6203 1.78985 13.8614 2.42773 14.0528C3.71197 14.438 5.4462 14.6667 7.33333 14.6667C9.22047 14.6667 10.9547 14.438 12.2389 14.0528C12.8768 13.8614 13.4416 13.6203 13.8618 13.3223C14.2647 13.0365 14.6667 12.5994 14.6667 12L14.6667 3.0001C14.6667 3.0001 14.6667 3.00005 14.6235 3.00004L14.6667 3.0001C14.6667 2.95249 14.6617 2.90595 14.6522 2.86116C14.6617 2.79834 14.6667 2.73351 14.6667 2.66667C14.6667 2.06732 14.2647 1.63015 13.8618 1.3444C13.4416 1.04637 12.8768 0.805266 12.2389 0.613902C10.9547 0.228627 9.22047 0 7.33333 0ZM1.57625 2.90138C1.40118 2.77721 1.35086 2.6961 1.33721 2.66667C1.35086 2.63723 1.40118 2.55612 1.57625 2.43195C1.83077 2.25143 2.2423 2.06157 2.81085 1.891C3.93946 1.55242 5.53857 1.33333 7.33333 1.33333C9.12809 1.33333 10.7272 1.55242 11.8558 1.891C12.4244 2.06157 12.8359 2.25143 13.0904 2.43195C13.2655 2.55612 13.3158 2.63723 13.3295 2.66667C13.3158 2.6961 13.2655 2.77721 13.0904 2.90138C12.8359 3.08191 12.4244 3.27176 11.8558 3.44233C10.7272 3.78091 9.12809 4 7.33333 4C5.53857 4 3.93946 3.78091 2.81085 3.44233C2.2423 3.27176 1.83077 3.08191 1.57625 2.90138ZM13.3334 4.29983C13.0089 4.46036 12.6382 4.59964 12.2389 4.71943C10.9547 5.10471 9.22047 5.33333 7.33333 5.33333C5.4462 5.33333 3.71197 5.10471 2.42772 4.71943C2.02844 4.59965 1.6578 4.46037 1.33333 4.29984L1.33334 5.99053C1.33896 6.00698 1.37599 6.09267 1.57625 6.23472C1.83077 6.41524 2.2423 6.6051 2.81085 6.77566C3.93946 7.11424 5.53857 7.33333 7.33333 7.33333C9.1281 7.33333 10.7272 7.11424 11.8558 6.77566C12.4244 6.6051 12.8359 6.41524 13.0904 6.23472C13.291 6.09245 13.3278 6.00672 13.3334 5.99045L13.3334 4.29983ZM1.33334 8.99054L1.33334 7.63318C1.6578 7.7937 2.02844 7.93298 2.42772 8.05276C3.71197 8.43804 5.4462 8.66667 7.33333 8.66667C9.22047 8.66667 10.9547 8.43804 12.2389 8.05276C12.6382 7.93298 13.0089 7.7937 13.3333 7.63317L13.3333 8.99048C13.3278 9.00683 13.2909 9.09254 13.0904 9.23472C12.8359 9.41524 12.4244 9.6051 11.8558 9.77566C10.7272 10.1142 9.1281 10.3333 7.33333 10.3333C5.53857 10.3333 3.93946 10.1142 2.81085 9.77566C2.2423 9.6051 1.83077 9.41524 1.57625 9.23472C1.37603 9.0927 1.33897 9.00702 1.33334 8.99054ZM1.33334 10.6332L1.33334 11.9905C1.33895 12.0069 1.37595 12.0926 1.57626 12.2347C1.83078 12.4152 2.24231 12.6051 2.81086 12.7757C3.93946 13.1142 5.53857 13.3333 7.33333 13.3333C9.1281 13.3333 10.7272 13.1142 11.8558 12.7757C12.4244 12.6051 12.8359 12.4152 13.0904 12.2347C13.2907 12.0926 13.3277 12.0069 13.3333 11.9905L13.3333 10.6332C13.0089 10.7937 12.6382 10.933 12.2389 11.0528C10.9547 11.438 9.22047 11.6667 7.33333 11.6667C5.4462 11.6667 3.71197 11.438 2.42772 11.0528C2.02844 10.933 1.6578 10.7937 1.33334 10.6332Z" fill="var(--fill-0, #7A7E85)"/>
</svg>
