<svg viewBox="0 0 14.6667 14.6667" fill="none" xmlns="http://www.w3.org/2000/svg">
<path id="Vector" fill-rule="evenodd" clip-rule="evenodd" d="M6.66667 0.666667C6.66667 0.298477 6.96514 0 7.33333 0C11.3834 0 14.6667 3.28324 14.6667 7.33333C14.6667 7.70152 14.3682 8 14 8H7.33333C6.96514 8 6.66667 7.70152 6.66667 7.33333V0.666667ZM8 1.36995V6.66667H13.2967C12.9893 3.88559 10.7811 1.67738 8 1.36995ZM5.39736 0.917136C5.53839 1.25725 5.377 1.64729 5.03688 1.78831C4.30403 2.09219 3.64386 2.53752 3.09069 3.09069C2.00418 4.17719 1.33333 5.67628 1.33333 7.33333C1.33333 10.647 4.01962 13.3333 7.33333 13.3333C8.99035 13.3333 10.4894 12.6625 11.576 11.576C12.1291 11.0228 12.5745 10.3626 12.8783 9.62978C13.0194 9.28967 13.4094 9.12828 13.7495 9.26931C14.0896 9.41033 14.251 9.80037 14.11 10.1405C13.7381 11.0373 13.1938 11.8438 12.5188 12.5188M12.5188 12.5188C11.1924 13.8451 9.35817 14.6667 7.33333 14.6667C3.28324 14.6667 0 11.3834 0 7.33333C0 5.30846 0.821541 3.47421 2.14788 2.14788C2.82287 1.47289 3.62931 0.928551 4.52618 0.556662C4.86629 0.415635 5.25633 0.577025 5.39736 0.917136" fill="var(--fill-0, #7A7E85)"/>
</svg>
