<svg preserveAspectRatio="none" width="100%" height="100%" overflow="visible" style="display: block;" viewBox="0 0 5.34538 10.1439" fill="none" xmlns="http://www.w3.org/2000/svg">
<path id="Vector" d="M4.64844 0.108938L0.122938 4.77094C0.0409792 4.8529 0 4.9509 0 5.06494C0 5.17898 0.0409792 5.2815 0.122938 5.3725L4.64844 10.0345C4.7304 10.1074 4.82606 10.1439 4.93544 10.1439C5.04481 10.1439 5.14048 10.1029 5.22244 10.0209C5.3044 9.93898 5.34538 9.84331 5.34538 9.73394C5.34538 9.62456 5.3044 9.5289 5.22244 9.44694L0.956813 5.07194L5.22244 0.696937C5.3044 0.614979 5.34538 0.519312 5.34538 0.409937C5.34538 0.300562 5.3044 0.204896 5.22244 0.122938C5.14048 0.0409792 5.04481 0 4.93544 0C4.82606 0 4.7304 0.0364583 4.64844 0.109375V0.108938Z" fill="var(--fill-0, #646A73)"/>
</svg>
