<svg preserveAspectRatio="none" width="100%" height="100%" overflow="visible" style="display: block;" viewBox="0 0 12.1647 12.1647" fill="none" xmlns="http://www.w3.org/2000/svg">
<g id="Vector">
<path d="M9.91724 5.54224C9.91724 3.1261 7.95834 1.16739 5.54224 1.16724C3.126 1.16724 1.16724 3.126 1.16724 5.54224C1.16739 7.95834 3.1261 9.91724 5.54224 9.91724C7.95824 9.91708 9.91708 7.95824 9.91724 5.54224ZM11.0836 5.54224C11.0835 8.60258 8.60258 11.0835 5.54224 11.0836C2.48177 11.0836 0.000153997 8.60267 0 5.54224C0 2.48167 2.48167 0 5.54224 0C8.60267 0.000154 11.0836 2.48177 11.0836 5.54224Z" fill="var(--fill-0, #646A73)"/>
<path d="M8.69389 8.69389C8.92169 8.46608 9.29152 8.46608 9.51933 8.69389L11.9939 11.1694C12.2216 11.3972 12.2217 11.7662 11.9939 11.9939C11.7662 12.2217 11.3972 12.2216 11.1694 11.9939L8.69389 9.51933C8.46608 9.29152 8.46608 8.92169 8.69389 8.69389Z" fill="var(--fill-0, #646A73)"/>
</g>
</svg>
